<svg width="677" height="2398" viewBox="0 0 677 2398" fill="none" xmlns="http://www.w3.org/2000/svg">
<circle cx="129.5" cy="475.5" r="129.5" transform="rotate(-90 129.5 475.5)" fill="url(#paint0_linear_79_9)"/>
<circle cx="490.5" cy="158.5" r="158.5" transform="rotate(90 490.5 158.5)" fill="url(#paint1_linear_79_9)"/>
<path d="M259.706 739.196L324.357 712.601L416.442 709.038L510.048 679.449" stroke="url(#paint2_linear_79_9)" stroke-width="50" stroke-linecap="round"/>
<path d="M56.0387 955.075L129.792 961.751L207.757 905.404L307.504 897.959" stroke="url(#paint3_linear_79_9)" stroke-width="50" stroke-linecap="round"/>
<path d="M565.119 1016.09L493.592 1011.79L410.337 1055.11L311.615 1061.73" stroke="url(#paint4_linear_79_9)" stroke-width="50" stroke-linecap="round"/>
<path d="M490.352 1155.16C502.698 1150.32 516.461 1150.59 528.613 1155.89L612.498 1192.55C624.65 1197.85 634.194 1207.77 639.033 1220.12L672.433 1305.35C677.271 1317.7 677.007 1331.46 671.697 1343.61L635.047 1427.5C629.738 1439.65 619.819 1449.19 607.472 1454.03L522.241 1487.43C509.894 1492.27 496.131 1492.01 483.98 1486.7L400.095 1450.05C387.943 1444.74 378.398 1434.82 373.56 1422.47L340.16 1337.24C335.321 1324.89 335.586 1311.13 340.895 1298.98L377.545 1215.09C382.855 1202.94 392.773 1193.4 405.12 1188.56L490.352 1155.16Z" fill="url(#paint5_linear_79_9)"/>
<path d="M425.272 1622.74C430.063 1610.38 439.57 1600.42 451.701 1595.07L471.346 1586.39C483.478 1581.04 497.239 1580.72 509.604 1585.51L529.628 1593.27C541.993 1598.06 551.948 1607.57 557.304 1619.7L565.976 1639.35C571.332 1651.48 571.649 1665.24 566.857 1677.6L559.098 1697.63C554.307 1709.99 544.8 1719.95 532.669 1725.3L513.024 1733.98C500.892 1739.33 487.131 1739.65 474.766 1734.86L454.742 1727.1C442.377 1722.31 432.422 1712.8 427.066 1700.67L418.394 1681.02C413.038 1668.89 412.722 1655.13 417.513 1642.77L425.272 1622.74Z" fill="url(#paint6_linear_79_9)"/>
<path d="M253.283 1469.98C260.907 1480.83 263.908 1494.26 261.626 1507.33L252.841 1557.62C250.56 1570.68 243.182 1582.31 232.332 1589.93L190.555 1619.28C179.705 1626.91 166.27 1629.91 153.207 1627.63L102.911 1618.84C89.8475 1616.56 78.2259 1609.18 70.6023 1598.33L41.2492 1556.55C33.6256 1545.7 30.6245 1532.27 32.9062 1519.21L41.6912 1468.91C43.9728 1455.85 51.3503 1444.23 62.2007 1436.6L103.978 1407.25C114.828 1399.63 128.262 1396.62 141.325 1398.91L191.622 1407.69C204.685 1409.97 216.307 1417.35 223.93 1428.2L253.283 1469.98Z" fill="url(#paint7_linear_79_9)"/>
<path d="M413.333 1923.5C425.44 1910.36 443.634 1904.69 461.062 1908.6L533.435 1924.87C550.863 1928.79 564.878 1941.71 570.199 1958.76L592.298 2029.57C597.62 2046.62 593.44 2065.22 581.333 2078.35L531.059 2132.89C518.953 2146.03 500.758 2151.71 483.33 2147.79L410.958 2131.52C393.529 2127.6 379.514 2114.69 374.193 2097.63L352.094 2026.82C346.773 2009.77 350.952 1991.18 363.059 1978.04L413.333 1923.5Z" fill="url(#paint8_linear_79_9)"/>
<path d="M37.9564 1979.59C22.4864 1970.65 12.9564 1954.15 12.9564 1936.29L12.9564 1862.11C12.9564 1844.24 22.4864 1827.74 37.9564 1818.81L102.196 1781.72C117.666 1772.79 136.726 1772.79 152.196 1781.72L216.436 1818.81C231.906 1827.74 241.436 1844.24 241.436 1862.11L241.436 1936.29C241.436 1954.15 231.906 1970.65 216.436 1979.59L152.196 2016.68C136.726 2025.61 117.666 2025.61 102.196 2016.68L37.9564 1979.59Z" fill="url(#paint9_linear_79_9)"/>
<path d="M87.1971 2175.6C96.2359 2160.2 112.808 2150.78 130.671 2150.9L153.096 2151.06C170.959 2151.18 187.399 2160.83 196.223 2176.36L207.3 2195.86C216.124 2211.39 215.992 2230.45 206.953 2245.86L195.606 2265.2C186.567 2280.61 169.995 2290.02 152.132 2289.9L129.707 2289.74C111.845 2289.62 95.4047 2279.98 86.5807 2264.44L75.5029 2244.95C66.6788 2229.41 66.8111 2210.35 75.8499 2194.95L87.1971 2175.6Z" fill="url(#paint10_linear_79_9)"/>
<defs>
<linearGradient id="paint0_linear_79_9" x1="232.855" y1="346" x2="50.6561" y2="577.221" gradientUnits="userSpaceOnUse">
<stop stop-color="#CC00FF"/>
<stop offset="1" stop-color="#2CB2DC"/>
</linearGradient>
<linearGradient id="paint1_linear_79_9" x1="617" y1="-6.22323e-06" x2="394" y2="283" gradientUnits="userSpaceOnUse">
<stop stop-color="#CC00FF"/>
<stop offset="1" stop-color="#2CB2DC"/>
</linearGradient>
<linearGradient id="paint2_linear_79_9" x1="519.542" y1="680.467" x2="339.025" y2="855.678" gradientUnits="userSpaceOnUse">
<stop stop-color="#FF7A00"/>
<stop offset="1" stop-color="#00FF29"/>
</linearGradient>
<linearGradient id="paint3_linear_79_9" x1="314.449" y1="889.492" x2="28.603" y2="889.173" gradientUnits="userSpaceOnUse">
<stop stop-color="#FF7A00"/>
<stop offset="1" stop-color="#00FF29"/>
</linearGradient>
<linearGradient id="paint4_linear_79_9" x1="303.783" y1="1068.19" x2="576.566" y2="1112.16" gradientUnits="userSpaceOnUse">
<stop stop-color="#FF7A00"/>
<stop offset="1" stop-color="#00FF29"/>
</linearGradient>
<linearGradient id="paint5_linear_79_9" x1="509.634" y1="1147.6" x2="502.958" y2="1494.99" gradientUnits="userSpaceOnUse">
<stop stop-color="#FF4D00"/>
<stop offset="1" stop-color="#FF0099"/>
</linearGradient>
<linearGradient id="paint6_linear_79_9" x1="432.755" y1="1603.43" x2="551.615" y2="1716.94" gradientUnits="userSpaceOnUse">
<stop stop-color="#FF4D00"/>
<stop offset="1" stop-color="#FF0099"/>
</linearGradient>
<linearGradient id="paint7_linear_79_9" x1="265.19" y1="1486.92" x2="29.3427" y2="1539.61" gradientUnits="userSpaceOnUse">
<stop stop-color="#FF4D00"/>
<stop offset="1" stop-color="#FF0099"/>
</linearGradient>
<linearGradient id="paint8_linear_79_9" x1="432.898" y1="1902.27" x2="511.495" y2="2154.12" gradientUnits="userSpaceOnUse">
<stop stop-color="#00E0FF"/>
<stop offset="1" stop-color="#FFF500"/>
</linearGradient>
<linearGradient id="paint9_linear_79_9" x1="12.9564" y1="1965.15" x2="241.436" y2="1833.24" gradientUnits="userSpaceOnUse">
<stop stop-color="#00E0FF"/>
<stop offset="1" stop-color="#FFF500"/>
</linearGradient>
<linearGradient id="paint10_linear_79_9" x1="101.804" y1="2150.7" x2="180.999" y2="2290.1" gradientUnits="userSpaceOnUse">
<stop stop-color="#00E0FF"/>
<stop offset="1" stop-color="#FFF500"/>
</linearGradient>
</defs>
</svg>
