<svg width="1816" height="1226" viewBox="0 0 1816 1226" fill="none" xmlns="http://www.w3.org/2000/svg">
<path d="M1453.76 382.554L1396.37 422.466L1307.22 445.806L1222.19 494.886" stroke="url(#paint0_linear_95_15)" stroke-width="50" stroke-linecap="round"/>
<path d="M1156.03 909.224L1082.56 918.525L1018.5 990.285L922.673 1018.96" stroke="url(#paint1_linear_95_15)" stroke-width="50" stroke-linecap="round"/>
<path d="M571.319 307.261L510.07 270.073L416.222 269.517L325.824 229.292" stroke="url(#paint2_linear_95_15)" stroke-width="50" stroke-linecap="round"/>
<path d="M952.895 192.976C948.056 180.629 948.321 166.866 953.63 154.715L990.28 70.8296C995.59 58.678 1005.51 49.1331 1017.86 44.2947L1103.09 10.8947C1115.43 6.05632 1129.2 6.32083 1141.35 11.63L1225.23 48.2803C1237.38 53.5895 1246.93 63.5085 1251.77 75.8551L1285.17 161.087C1290.01 173.433 1289.74 187.196 1284.43 199.348L1247.78 283.233C1242.47 295.385 1232.55 304.929 1220.21 309.768L1134.98 343.168C1122.63 348.006 1108.87 347.742 1096.71 342.432L1012.83 305.782C1000.68 300.473 991.133 290.554 986.295 278.207L952.895 192.976Z" fill="url(#paint3_linear_95_15)"/>
<path d="M91.0638 475.896C77.9301 474.064 66.062 467.09 58.0702 456.508L45.1287 439.371C37.137 428.789 33.6763 415.466 35.5081 402.332L38.4743 381.064C40.306 367.93 47.2801 356.062 57.8622 348.07L74.9986 335.129C85.5808 327.137 98.9043 323.676 112.038 325.508L133.306 328.474C146.44 330.306 158.308 337.28 166.3 347.862L179.241 364.999C187.233 375.581 190.694 388.904 188.862 402.038L185.896 423.306C184.064 436.44 177.09 448.308 166.508 456.3L149.371 469.241C138.789 477.233 125.466 480.694 112.332 478.862L91.0638 475.896Z" fill="url(#paint4_linear_95_15)"/>
<path d="M549.978 998.249C560.828 990.626 574.262 987.624 587.325 989.906L637.622 998.691C650.685 1000.97 662.307 1008.35 669.93 1019.2L699.283 1060.98C706.907 1071.83 709.908 1085.26 707.626 1098.33L698.841 1148.62C696.56 1161.68 689.182 1173.31 678.332 1180.93L636.555 1210.28C625.704 1217.91 612.27 1220.91 599.207 1218.63L548.911 1209.84C535.847 1207.56 524.226 1200.18 516.602 1189.33L487.249 1147.55C479.626 1136.7 476.624 1123.27 478.906 1110.21L487.691 1059.91C489.973 1046.85 497.35 1035.23 508.201 1027.6L549.978 998.249Z" fill="url(#paint5_linear_95_15)"/>
<path d="M33.5247 944.085C20.3899 931.978 14.7117 913.784 18.629 896.355L34.896 823.983C38.8134 806.555 51.7311 792.54 68.7833 787.218L139.593 765.12C156.645 759.798 175.241 763.978 188.376 776.085L242.918 826.358C256.053 838.465 261.731 856.659 257.814 874.088L241.547 946.46C237.63 963.888 224.712 977.903 207.66 983.225L136.85 1005.32C119.798 1010.64 101.202 1006.47 88.0673 994.358L33.5247 944.085Z" fill="url(#paint6_linear_95_15)"/>
<path d="M1543.42 1036.94C1530.1 1048.84 1511.43 1052.72 1494.47 1047.12L1424.02 1023.9C1407.06 1018.31 1394.36 1004.09 1390.73 986.597L1375.62 913.975C1371.98 896.486 1377.95 878.384 1391.27 866.489L1446.61 817.093C1459.94 805.197 1478.6 801.315 1495.56 806.908L1566.01 830.135C1582.98 835.728 1595.67 849.947 1599.31 867.436L1614.42 940.058C1618.05 957.547 1612.09 975.649 1598.76 987.544L1543.42 1036.94Z" fill="url(#paint7_linear_95_15)"/>
<path d="M1670.7 1034.2L1671.26 954.037L1740.96 914.44L1810.1 955.001L1809.54 1035.16L1739.85 1074.76L1670.7 1034.2Z" fill="url(#paint8_linear_95_15)"/>
<defs>
<linearGradient id="paint0_linear_95_15" x1="1212.7" y1="495.94" x2="1351.19" y2="285.92" gradientUnits="userSpaceOnUse">
<stop stop-color="#FF7A00"/>
<stop offset="1" stop-color="#00FF29"/>
</linearGradient>
<linearGradient id="paint1_linear_95_15" x1="917.707" y1="1028.72" x2="1196.97" y2="967.705" gradientUnits="userSpaceOnUse">
<stop stop-color="#FF7A00"/>
<stop offset="1" stop-color="#00FF29"/>
</linearGradient>
<linearGradient id="paint2_linear_95_15" x1="315.882" y1="231.35" x2="536.599" y2="397.568" gradientUnits="userSpaceOnUse">
<stop stop-color="#FF7A00"/>
<stop offset="1" stop-color="#00FF29"/>
</linearGradient>
<linearGradient id="paint3_linear_95_15" x1="945.338" y1="173.693" x2="1292.72" y2="180.369" gradientUnits="userSpaceOnUse">
<stop stop-color="#FF4D00"/>
<stop offset="1" stop-color="#FF0099"/>
</linearGradient>
<linearGradient id="paint4_linear_95_15" x1="70.5516" y1="473.035" x2="153.818" y2="331.335" gradientUnits="userSpaceOnUse">
<stop stop-color="#FF4D00"/>
<stop offset="1" stop-color="#FF0099"/>
</linearGradient>
<linearGradient id="paint5_linear_95_15" x1="566.924" y1="986.343" x2="619.609" y2="1222.19" gradientUnits="userSpaceOnUse">
<stop stop-color="#FF4D00"/>
<stop offset="1" stop-color="#FF0099"/>
</linearGradient>
<linearGradient id="paint6_linear_95_15" x1="12.2985" y1="924.52" x2="264.145" y2="845.923" gradientUnits="userSpaceOnUse">
<stop stop-color="#00E0FF"/>
<stop offset="1" stop-color="#FFF500"/>
</linearGradient>
<linearGradient id="paint7_linear_95_15" x1="1521.89" y1="1056.16" x2="1468.15" y2="797.869" gradientUnits="userSpaceOnUse">
<stop stop-color="#00E0FF"/>
<stop offset="1" stop-color="#FFF500"/>
</linearGradient>
<linearGradient id="paint8_linear_95_15" x1="1670.7" y1="1034.2" x2="1810.1" y2="955.001" gradientUnits="userSpaceOnUse">
<stop stop-color="#00E0FF"/>
<stop offset="1" stop-color="#FFF500"/>
</linearGradient>
</defs>
</svg>
