<svg width="665" height="1218" viewBox="0 0 665 1218" fill="none" xmlns="http://www.w3.org/2000/svg">
<path d="M186.649 1174.84C174.302 1179.68 160.539 1179.41 148.387 1174.11L64.5022 1137.45C52.3506 1132.15 42.8057 1122.23 37.9673 1109.88L4.5673 1024.65C-0.271049 1012.3 -0.00653911 998.539 5.30264 986.387L41.953 902.502C47.2622 890.35 57.1811 880.806 69.5277 875.967L154.759 842.567C167.106 837.729 180.869 837.993 193.02 843.303L276.906 879.953C289.057 885.262 298.602 895.181 303.44 907.528L336.84 992.759C341.679 1005.11 341.414 1018.87 336.105 1031.02L299.455 1114.91C294.146 1127.06 284.227 1136.6 271.88 1141.44L186.649 1174.84Z" fill="url(#paint0_linear_74_2)"/>
<path d="M251.728 707.258C246.937 719.623 237.43 729.578 225.299 734.934L205.654 743.606C193.523 748.962 179.761 749.279 167.396 744.487L147.372 736.729C135.007 731.937 125.052 722.43 119.696 710.299L111.024 690.654C105.669 678.523 105.352 664.761 110.143 652.396L117.902 632.372C122.693 620.007 132.2 610.052 144.331 604.696L163.976 596.024C176.108 590.669 189.869 590.352 202.234 595.143L222.258 602.902C234.623 607.693 244.578 617.2 249.934 629.331L258.606 648.976C263.962 661.108 264.279 674.87 259.487 687.235L251.728 707.258Z" fill="url(#paint1_linear_74_2)"/>
<path d="M423.717 860.022C416.093 849.172 413.092 835.738 415.374 822.675L424.159 772.378C426.44 759.315 433.818 747.693 444.668 740.07L486.445 710.717C497.296 703.093 510.73 700.092 523.793 702.374L574.09 711.159C587.153 713.44 598.774 720.818 606.398 731.668L635.751 773.445C643.374 784.296 646.376 797.73 644.094 810.793L635.309 861.09C633.027 874.153 625.65 885.774 614.799 893.398L573.022 922.751C562.172 930.374 548.738 933.376 535.675 931.094L485.378 922.309C472.315 920.027 460.693 912.65 453.07 901.799L423.717 860.022Z" fill="url(#paint2_linear_74_2)"/>
<path d="M263.667 406.501C251.56 419.635 233.366 425.314 215.937 421.396L143.565 405.129C126.137 401.212 112.122 388.294 106.801 371.242L84.7021 300.432C79.3804 283.38 83.5602 264.784 95.6669 251.649L145.941 197.107C158.047 183.972 176.242 178.294 193.67 182.211L266.042 198.478C283.471 202.396 297.486 215.313 302.807 232.365L324.906 303.175C330.227 320.227 326.048 338.823 313.941 351.958L263.667 406.501Z" fill="url(#paint3_linear_74_2)"/>
<path d="M639.044 350.413C654.514 359.345 664.044 375.851 664.044 393.715L664.044 467.893C664.044 485.756 654.514 502.262 639.044 511.194L574.804 548.283C559.334 557.214 540.274 557.214 524.804 548.283L460.564 511.194C445.094 502.262 435.564 485.756 435.564 467.892L435.564 393.715C435.564 375.851 445.094 359.345 460.564 350.413L524.804 313.325C540.274 304.393 559.334 304.393 574.804 313.325L639.044 350.413Z" fill="url(#paint4_linear_74_2)"/>
<path d="M589.803 154.397C580.764 169.804 564.192 179.219 546.329 179.096L523.904 178.94C506.041 178.816 489.602 169.172 480.778 153.64L469.7 134.142C460.876 118.61 461.008 99.5505 470.047 84.1428L481.394 64.7999C490.433 49.3922 507.005 39.9771 524.868 40.101L547.293 40.2566C565.156 40.3806 581.595 50.0248 590.42 65.5565L601.497 85.055C610.321 100.587 610.189 119.646 601.15 135.054L589.803 154.397Z" fill="url(#paint5_linear_74_2)"/>
<defs>
<linearGradient id="paint0_linear_74_2" x1="167.366" y1="1182.4" x2="174.042" y2="835.011" gradientUnits="userSpaceOnUse">
<stop stop-color="#FF4D00"/>
<stop offset="1" stop-color="#FF0099"/>
</linearGradient>
<linearGradient id="paint1_linear_74_2" x1="244.246" y1="726.57" x2="125.385" y2="613.061" gradientUnits="userSpaceOnUse">
<stop stop-color="#FF4D00"/>
<stop offset="1" stop-color="#FF0099"/>
</linearGradient>
<linearGradient id="paint2_linear_74_2" x1="411.81" y1="843.076" x2="647.657" y2="790.391" gradientUnits="userSpaceOnUse">
<stop stop-color="#FF4D00"/>
<stop offset="1" stop-color="#FF0099"/>
</linearGradient>
<linearGradient id="paint3_linear_74_2" x1="244.102" y1="427.727" x2="165.505" y2="175.881" gradientUnits="userSpaceOnUse">
<stop stop-color="#00E0FF"/>
<stop offset="1" stop-color="#FFF500"/>
</linearGradient>
<linearGradient id="paint4_linear_74_2" x1="664.044" y1="364.847" x2="435.564" y2="496.76" gradientUnits="userSpaceOnUse">
<stop stop-color="#00E0FF"/>
<stop offset="1" stop-color="#FFF500"/>
</linearGradient>
<linearGradient id="paint5_linear_74_2" x1="575.196" y1="179.296" x2="496.001" y2="39.9007" gradientUnits="userSpaceOnUse">
<stop stop-color="#00E0FF"/>
<stop offset="1" stop-color="#FFF500"/>
</linearGradient>
</defs>
</svg>
