<svg width="1390" height="978" viewBox="0 0 1390 978" fill="none" xmlns="http://www.w3.org/2000/svg">
<path d="M137.63 47.6626C146.247 46.7569 154.467 51.5029 157.991 59.4183L185.14 120.395C188.664 128.31 186.691 137.595 180.252 143.393L130.649 188.055C124.21 193.853 114.77 194.845 107.266 190.513L49.4612 157.139C41.9575 152.807 38.0968 144.136 39.8983 135.661L53.7758 70.3718C55.5772 61.8966 62.6311 55.5453 71.2482 54.6396L137.63 47.6626Z" fill="url(#paint0_linear_155_15)"/>
<path d="M1235.83 775.867C1241.28 769.134 1250.45 766.677 1258.54 769.782L1338.19 800.355C1346.28 803.46 1351.45 811.421 1350.99 820.074L1346.53 905.268C1346.07 913.921 1340.1 921.298 1331.73 923.54L1249.33 945.621C1240.96 947.863 1232.1 944.462 1227.38 937.195L1180.91 865.646C1176.19 858.38 1176.69 848.901 1182.14 842.167L1235.83 775.867Z" fill="url(#paint1_linear_155_15)"/>
<path d="M759.098 421.559C767.715 420.653 775.935 425.399 779.46 433.314L814.159 511.251C817.683 519.166 815.71 528.451 809.271 534.248L745.872 591.333C739.433 597.131 729.993 598.123 722.489 593.791L648.607 551.135C641.103 546.802 637.242 538.131 639.044 529.656L656.781 446.208C658.583 437.733 665.636 431.382 674.254 430.476L759.098 421.559Z" fill="url(#paint2_linear_155_15)"/>
<path d="M214.609 769.058C224.961 766.284 236.008 769.244 243.586 776.822L287.887 821.123C295.466 828.702 298.426 839.748 295.652 850.101L279.437 910.617C276.662 920.97 268.576 929.056 258.223 931.83L197.707 948.046C187.354 950.82 176.308 947.86 168.729 940.281L124.428 895.98C116.85 888.401 113.89 877.355 116.664 867.002L132.879 806.486C135.653 796.133 143.74 788.047 154.092 785.273L214.609 769.058Z" fill="url(#paint3_linear_155_15)"/>
<path d="M1145.27 95.8769C1148.04 85.5242 1156.13 77.4377 1166.48 74.6637L1241.14 54.6598C1251.49 51.8858 1262.54 54.8456 1270.12 62.4244L1324.77 117.076C1332.35 124.655 1335.31 135.701 1332.53 146.054L1312.53 220.709C1309.76 231.062 1301.67 239.149 1291.32 241.923L1216.66 261.927C1206.31 264.701 1195.26 261.741 1187.68 254.162L1133.03 199.51C1125.45 191.932 1122.49 180.885 1125.27 170.533L1145.27 95.8769Z" fill="url(#paint4_linear_155_15)"/>
<path d="M481.203 187.53C491.921 187.53 501.825 193.248 507.184 202.53L531 243.781C536.359 253.063 536.359 264.499 531 273.781L507.184 315.032C501.825 324.314 491.921 330.032 481.203 330.032L433.571 330.032C422.853 330.032 412.949 324.314 407.59 315.032L383.774 273.781C378.415 264.499 378.415 253.063 383.774 243.781L407.59 202.53C412.949 193.248 422.853 187.53 433.571 187.53L481.203 187.53Z" fill="url(#paint5_linear_155_15)"/>
<path d="M965.833 789.122C976.186 791.896 984.272 799.983 987.046 810.335L999.374 856.345C1002.15 866.697 999.188 877.744 991.61 885.322L957.929 919.003C950.35 926.582 939.303 929.542 928.951 926.768L882.942 914.44C872.589 911.666 864.502 903.579 861.728 893.227L849.4 847.217C846.626 836.865 849.586 825.818 857.165 818.24L890.846 784.559C898.425 776.98 909.471 774.02 919.824 776.794L965.833 789.122Z" fill="url(#paint6_linear_155_15)"/>
<path d="M1153.8 433.087C1164.15 435.861 1172.24 443.947 1175.01 454.3L1187.34 500.309C1190.11 510.662 1187.15 521.708 1179.57 529.287L1145.89 562.968C1138.31 570.547 1127.27 573.507 1116.92 570.733L1070.91 558.404C1060.55 555.63 1052.47 547.544 1049.69 537.191L1037.36 491.182C1034.59 480.829 1037.55 469.783 1045.13 462.204L1078.81 428.523C1086.39 420.945 1097.44 417.985 1107.79 420.759L1153.8 433.087Z" fill="url(#paint7_linear_155_15)"/>
<path d="M549.891 711.798C558.508 714.813 565.284 721.589 568.299 730.206L582.336 770.321C585.351 778.938 584.278 788.46 579.421 796.19L556.81 832.175C551.953 839.906 543.839 845.004 534.767 846.026L492.535 850.784C483.463 851.807 474.418 848.642 467.963 842.186L437.911 812.134C431.455 805.679 428.291 796.635 429.313 787.562L434.071 745.33C435.094 736.258 440.191 728.145 447.922 723.287L483.907 700.676C491.637 695.819 501.159 694.746 509.776 697.761L549.891 711.798Z" fill="url(#paint8_linear_155_15)"/>
<path d="M203.891 432.798C212.509 435.813 219.284 442.589 222.299 451.206L236.336 491.321C239.351 499.938 238.279 509.46 233.421 517.19L210.81 553.175C205.953 560.906 197.84 566.004 188.767 567.026L146.535 571.784C137.463 572.807 128.419 569.642 121.963 563.186L91.9113 533.134C85.4556 526.679 82.2909 517.635 83.3131 508.562L88.0716 466.33C89.0938 457.258 94.1916 449.145 101.922 444.287L137.907 421.676C145.638 416.819 155.159 415.746 163.777 418.761L203.891 432.798Z" fill="url(#paint9_linear_155_15)"/>
<path d="M825.862 39.3735C834.833 37.6762 844.088 40.1561 851.008 46.1114L883.222 73.8332C890.142 79.7885 893.973 88.5708 893.632 97.6941L892.043 140.164C891.702 149.287 887.224 157.759 879.879 163.18L845.684 188.417C838.338 193.839 828.923 195.62 820.104 193.257L779.053 182.257C770.234 179.894 762.972 173.644 759.321 165.276L742.326 126.323C738.675 117.955 739.033 108.38 743.299 100.308L763.158 62.7336C767.424 54.6619 775.133 48.972 784.104 47.2747L825.862 39.3735Z" fill="url(#paint10_linear_155_15)"/>
<defs>
<linearGradient id="paint0_linear_155_15" x1="152.081" y1="46.1437" x2="70.5811" y2="187.306" gradientUnits="userSpaceOnUse">
<stop stop-color="#FF058D"/>
<stop offset="1" stop-color="#C4C4C4" stop-opacity="0"/>
</linearGradient>
<linearGradient id="paint1_linear_155_15" x1="1244.98" y1="764.575" x2="1295.34" y2="952.528" gradientUnits="userSpaceOnUse">
<stop stop-color="#FF058D"/>
<stop offset="1" stop-color="#C4C4C4" stop-opacity="0"/>
</linearGradient>
<linearGradient id="paint2_linear_155_15" x1="773.549" y1="420.04" x2="676.257" y2="588.554" gradientUnits="userSpaceOnUse">
<stop stop-color="#FF058D"/>
<stop offset="1" stop-color="#C4C4C4" stop-opacity="0"/>
</linearGradient>
<linearGradient id="paint3_linear_155_15" x1="231.339" y1="764.575" x2="180.977" y2="952.528" gradientUnits="userSpaceOnUse">
<stop stop-color="#15E2E9"/>
<stop offset="1" stop-color="#C4C4C4" stop-opacity="0"/>
</linearGradient>
<linearGradient id="paint4_linear_155_15" x1="1149.75" y1="79.1466" x2="1308.05" y2="237.44" gradientUnits="userSpaceOnUse">
<stop stop-color="#1DD3DF"/>
<stop offset="1" stop-color="#020065" stop-opacity="0"/>
</linearGradient>
<linearGradient id="paint5_linear_155_15" x1="498.524" y1="187.53" x2="416.25" y2="330.032" gradientUnits="userSpaceOnUse">
<stop stop-color="#15E2E9"/>
<stop offset="1" stop-color="#C4C4C4" stop-opacity="0"/>
</linearGradient>
<linearGradient id="paint6_linear_155_15" x1="982.563" y1="793.605" x2="866.211" y2="909.957" gradientUnits="userSpaceOnUse">
<stop stop-color="#15E2E9"/>
<stop offset="1" stop-color="#C4C4C4" stop-opacity="0"/>
</linearGradient>
<linearGradient id="paint7_linear_155_15" x1="1170.53" y1="437.57" x2="1054.18" y2="553.922" gradientUnits="userSpaceOnUse">
<stop stop-color="#15E2E9"/>
<stop offset="1" stop-color="#C4C4C4" stop-opacity="0"/>
</linearGradient>
<linearGradient id="paint8_linear_155_15" x1="563.527" y1="716.57" x2="447.176" y2="832.922" gradientUnits="userSpaceOnUse">
<stop stop-color="#11F626"/>
<stop offset="1" stop-color="#EFF310" stop-opacity="0"/>
</linearGradient>
<linearGradient id="paint9_linear_155_15" x1="217.528" y1="437.57" x2="101.176" y2="553.922" gradientUnits="userSpaceOnUse">
<stop stop-color="#11F626"/>
<stop offset="1" stop-color="#EFF310" stop-opacity="0"/>
</linearGradient>
<linearGradient id="paint10_linear_155_15" x1="840.058" y1="36.6876" x2="797.47" y2="195.627" gradientUnits="userSpaceOnUse">
<stop stop-color="#11F626"/>
<stop offset="1" stop-color="#EFF310" stop-opacity="0"/>
</linearGradient>
</defs>
</svg>
